<svg id="abf0a892-db11-42c8-a69e-5686775713ba" data-name="Livello 1" xmlns="http://www.w3.org/2000/svg" width="700mm" height="413.56mm" viewBox="0 0 1984.25 1172.3">
  <defs>
    <style>
      .fb162d96-c87c-4fb7-9998-3f71599fcdc4 {
        fill: #fff;
      }
    </style>
  </defs>
  <g>
    <path class="fb162d96-c87c-4fb7-9998-3f71599fcdc4" d="M777.32,607.79c.47,8-1.21,14-5.14,18.36-5.28,5.89-14.6,9-29.32,9.74-10.62.54-22.92-5.5-26.32-12.92-2-4.51-.77-9.21,3.82-14,3.72-3.9,12.57-8.35,18-6.44,1.23.43,4.15,4.06,4,6.18,0,.23,0,.61-1.38.83a2.94,2.94,0,0,0,1,5.79c5.24-.9,6.11-4.58,6.24-6.12.4-4.73-4.09-10.89-7.87-12.22-8.1-2.84-19.23,2.77-24.16,7.92-6.23,6.51-8,13.79-4.91,20.5,5,10.85,20.44,16.92,31.95,16.33a86.38,86.38,0,0,0,14-1.74c.36,1.44,7.36,29.1,8.42,33.31-24.44,9.66-50.38,4.48-70.41-1.23-14.23-4.05-24.58-24.66-25.67-32.19-2.56-17.59-.05-28.6,10.34-45.3,11.94-19.21,24.39-26,49.31-27C751.09,566.81,775.76,581.92,777.32,607.79Z"/>
    <path class="fb162d96-c87c-4fb7-9998-3f71599fcdc4" d="M1250.91,243.43c24.74,1.19,39.46,27.25,39.83,49.25,11.64-8.12,14-22.7,27.48-30,13.82-7.48,32.44-10.41,47.64-14.66,11.88-3.33,24.28-4.62,36.36-7-19.83,31-41.85,85.79-82.78,93.92-9.64,1.92-18.42,1.48-24.89-5.34-2.36-2.5-3.14-5.14-6.2-7.05-18,12.87,6.74,49.31,17.41,59.89-4.85,5.64-12.5,3.6-10.46,5.55-1.22-11.13-8.29-20.86-14.71-29.65-3.13-4.27-4.79-8.57-6.62-13.34s1.77-14.88,1.38-19.7c-3.92,2.42-14,11.79-17.63,15.44a70.19,70.19,0,0,1-24.5,15.74c-13.46,5.32-40.9,13.66-54.76,7.7,2.13-14.91,9.34-28.38,14.89-42.19,3.29-8.17,5.81-17.71,14.28-21.67,16.7-7.78,41.61,1.7,56.82,6.69-1.53-11.39-15.12-19.21-19.4-29.57-2-4.88-4.65-11.36-3.73-16.78,1.16-6.77,7.1-9.9,9.1-15.59Z"/>
    <path class="fb162d96-c87c-4fb7-9998-3f71599fcdc4" d="M875.32,222.83c-10.9-6.63-36.59-9-50.25-10.69-21.24-2.58-37.47-2.26-58.54,2.39-19.26,4.25-30.24,18.06-41.84,33.34-9.2-11.07-15.25-17.31-18.77-32.41-3.09-13.26-3.3-14-17.69-17.54a150.81,150.81,0,0,0-26.66-3.83c2.32,16.72,13.13,27.71,20.75,31.72,14.18,7.46,16.54,13.49,24.67,26-25-.91-45.23-13-69.85-14.75-41.51-3-101,7.53-133.91,33.51,10.73,13.26,40.93,19,56.68,22.16,12.65,2.54,24.86,5.85,37.74,7.26,21.3,2.32,43.07,5.61,63.84,2.83,14.52-1.94,24.65-1.63,36.51-9.3,12.28-7.94,13.54-4.26,29-1.56-4.21,8.21,4.87,16.57,4.25,26.13-.84,12.65-2.65,24.95-.11,37.39,16.91,4.14,40.87-10.77,56.87-16,10.94-3.58,23-7.32,34.33-7.47-1.74-11.64-22.81-30.37-33.82-34.21-9.69-3.39-22-1.87-30-8.64,28.16-4.18,68.69-6.14,90.14-26.43C861,251,870.1,236.32,878.45,222.16"/>
    <path class="fb162d96-c87c-4fb7-9998-3f71599fcdc4" d="M1273,644.63c-7.37,7.11-57.49,22.42-70.59,25-39.32,7.81-82.92,6-120.93-13.7-24-12.41-47.21-37.77-72.27-44.17-29.1-7.46-58.46,39.51-87.91,35.18,2.8-16.77,23.43-49.69,24.33-60.06.73-8.58,1.57-18.65,1.48-27.29-.11-10.84-3.15-20.56-1.89-31.68,27.77,36.26,36.28,53.24,73.07,62.85,25.27,6.61,46.95,1.64,72.91-5.8,20.61-5.9,40-15.46,60.61-14,10.63.76,38,9.75,60.18,20.23,8.46,4,16.86,10.63,25,18.59C1250.25,622.75,1273,644.63,1273,644.63Z"/>
    <path class="fb162d96-c87c-4fb7-9998-3f71599fcdc4" d="M1053.64,297.77c24.17-16.91,51.2-56.48,42.51-87.1-11.28-39.74-42.86-49.74-79.21-47.74-29.84,1.65-60,6.49-80.53,30.49-22.65,26.5-6.87,68.87,11.75,94.56,17.1,23.61,36,21,60.51,16.41,12.72-2.4,33.33,2,41.74-6.15"/>
    <path class="fb162d96-c87c-4fb7-9998-3f71599fcdc4" d="M854.07,543.17c-24.65,17.17-25,66.5-16.1,92.36,8,23.23,44.16,109.37,56.41,55.71,6-26.25-6.14-72.48-14.48-97.3-6.24-18.53-24.3-34.92-28.35-55.8"/>
    <g>
      <path class="fb162d96-c87c-4fb7-9998-3f71599fcdc4" d="M484.81,503.57,480,570.89H303.34V559.47q3.77-.32,10.94-1.12t10-2.07a13.64,13.64,0,0,0,6.85-6.07A21.74,21.74,0,0,0,333.25,540V377.75a23.93,23.93,0,0,0-1.81-9.58q-1.81-4.16-7.16-6.7a53.88,53.88,0,0,0-10.16-3.76,58.6,58.6,0,0,0-10.78-2.16V344.14H399v11.41a76.63,76.63,0,0,0-11.65,1.6A86.28,86.28,0,0,0,377,359.71a11.94,11.94,0,0,0-7.47,6.54,24.61,24.61,0,0,0-2,9.9V528.28a99.05,99.05,0,0,0,1,16.36,14.58,14.58,0,0,0,4.85,9q3.66,2.88,10.91,3.76a181.19,181.19,0,0,0,20.31.87q5.88,0,12.25-.31A104.81,104.81,0,0,0,429,556.7a62.85,62.85,0,0,0,10.27-2.62,16.37,16.37,0,0,0,6.93-4.22q6.52-7.3,15.2-22.19t12-24.1Z"/>
      <path class="fb162d96-c87c-4fb7-9998-3f71599fcdc4" d="M572.06,570.89H495.69V560.26c2.45-.21,5-.43,7.61-.63a29.18,29.18,0,0,0,6.81-1.28,11.51,11.51,0,0,0,6.64-5,17.88,17.88,0,0,0,2.17-9.32V447a19.08,19.08,0,0,0-2.31-9.32,20.54,20.54,0,0,0-6.43-7.09,29.18,29.18,0,0,0-8.73-3.27A64.75,64.75,0,0,0,491,425.63V415l55.63-3.55,2.23,2.24V542.06a18.13,18.13,0,0,0,2.15,9.26,12.78,12.78,0,0,0,6.76,5.43,54.67,54.67,0,0,0,6.84,2.32,42.77,42.77,0,0,0,7.48,1.19ZM552,349.31a23.42,23.42,0,0,1-6,16,18.93,18.93,0,0,1-14.8,6.82,18.68,18.68,0,0,1-14.15-6.5,21.24,21.24,0,0,1-6-14.83,22.13,22.13,0,0,1,6-15.4q6-6.57,14.15-6.57a19.71,19.71,0,0,1,15,6.17A20.29,20.29,0,0,1,552,349.31Z"/>
      <path class="fb162d96-c87c-4fb7-9998-3f71599fcdc4" d="M705.22,342.42a19.19,19.19,0,0,1-3.84,12.13q-3.84,4.93-11.68,4.94a17.83,17.83,0,0,1-8.73-2.07,27.27,27.27,0,0,1-7-5.59,51.31,51.31,0,0,1-5.93-8c-1.81-3-3.35-5.37-4.63-7.18q-10.73.48-16.57,14.94t-5.84,46.08v16.14H681.6v15.35H641.05V542.35a17.1,17.1,0,0,0,2.17,9.12,13.1,13.1,0,0,0,6.81,5.27,49,49,0,0,0,10.27,2.32q6.42.88,11.07,1.2v10.63H587.91V560.26c2.45-.21,5-.43,7.61-.64a29.18,29.18,0,0,0,6.81-1.28,11.48,11.48,0,0,0,6.64-5,18,18,0,0,0,2.17-9.36V429.17H580V413.82h31.1V403.75q0-35.92,18.66-58.2t46.73-22.28q14.26,0,21.48,5.59T705.22,342.42Z"/>
      <path class="fb162d96-c87c-4fb7-9998-3f71599fcdc4" d="M824.12,534.05a80.73,80.73,0,0,1-26.64,30q-16.68,11.16-38.34,11.17-19.1,0-33.45-6.72A65.68,65.68,0,0,1,702,550.24a77.5,77.5,0,0,1-13.88-26.9,113.36,113.36,0,0,1-4.57-32.5,95.64,95.64,0,0,1,4.89-30.18A85,85,0,0,1,702.82,434a69.32,69.32,0,0,1,22.68-18.33,65.4,65.4,0,0,1,30.39-7q17.31,0,29.66,5.44a52.8,52.8,0,0,1,20,14.86,59.62,59.62,0,0,1,11,21.11,92.48,92.48,0,0,1,3.61,26.38V487H715.47a124.74,124.74,0,0,0,3,28.34,67.56,67.56,0,0,0,9.41,22.38,44.63,44.63,0,0,0,16.4,14.74q10.14,5.4,24.13,5.4,14.31,0,24.69-6.67t20-24Zm-35.83-60.4a130.64,130.64,0,0,0-1.52-19.12,58.08,58.08,0,0,0-4.87-17,32.45,32.45,0,0,0-10.06-12q-6.39-4.62-16.45-4.63-16.77,0-27.87,14t-12,38.8Z"/>
      <path class="fb162d96-c87c-4fb7-9998-3f71599fcdc4" d="M1130.27,355.55a36.49,36.49,0,0,0-9.28,1.84,45.24,45.24,0,0,0-9.76,4.39,33.27,33.27,0,0,0-9,8.06,41.93,41.93,0,0,0-6,12.7q-11.37,36.88-26.41,86.13t-32.48,105h-14.79l-57.34-174.7-59.51,174.7H891.52q-15.85-55.87-32.81-116T836,377.11a28,28,0,0,0-4.24-8.79,30.77,30.77,0,0,0-17-11.09,58.53,58.53,0,0,0-9.68-1.68V344.14h92.57v11.41A143.71,143.71,0,0,0,877,358q-8.57,1.76-8.56,5.91a24.9,24.9,0,0,0,.48,4.23c.32,1.76.59,3.17.8,4.23q3.67,14.06,13,46.49T910.5,516l56.62-168.68h15.65l57.14,172.07q11.55-39.63,19.91-69.29t13.8-50.75q3.86-14.86,4.81-20.37a56,56,0,0,0,1-9.35c0-3.61-2.48-6.65-7.44-9.09s-13-4.1-24.07-5V344.14h82.39Z"/>
      <path class="fb162d96-c87c-4fb7-9998-3f71599fcdc4" d="M1257.28,568q-7.52,2.7-13.17,4.36a46,46,0,0,1-12.85,1.66q-12.46,0-19.88-5.84t-9.5-17h-1a77.53,77.53,0,0,1-22.13,17.58q-11.82,6.07-28.47,6.07-17.6,0-28.94-10.86t-11.34-28.46a48.55,48.55,0,0,1,2.54-16.3,38.82,38.82,0,0,1,7.63-13,37.93,37.93,0,0,1,10.48-8.55,92.39,92.39,0,0,1,12.23-6q7.14-2.7,29-10.07t29.46-11.51V454.44a66.71,66.71,0,0,0-.87-7.91,33.08,33.08,0,0,0-3.72-11.07,31.55,31.55,0,0,0-9-10.2q-5.77-4.36-16.38-4.36a36.86,36.86,0,0,0-13.54,2.45c-4.17,1.63-7.11,3.34-8.79,5.12a42.14,42.14,0,0,0,1.52,9.31,47.78,47.78,0,0,1,1.52,11.36q0,5.52-5.05,10.1t-14,4.57q-8,0-11.8-5.67a22.43,22.43,0,0,1,1.41-26.76,52,52,0,0,1,13.45-12,73.12,73.12,0,0,1,17.34-7.58,67.72,67.72,0,0,1,19.89-3.12,129.29,129.29,0,0,1,23.31,1.84,42.66,42.66,0,0,1,18.06,7.93,36.88,36.88,0,0,1,12.33,16.09q4.22,10.17,4.22,26.16,0,22.9-.39,40.59t-.4,38.66q0,6.24,2.14,9.92a17.34,17.34,0,0,0,6.57,6.25c1.59,1,4.09,1.49,7.52,1.6s7,.16,10.54.16ZM1201.7,483.5q-13.5,4-23.68,7.86A95.6,95.6,0,0,0,1159.1,501a43.44,43.44,0,0,0-12.56,12.93,33.12,33.12,0,0,0-4.6,17.74q0,13.32,6.89,19.58t17.52,6.26a35.67,35.67,0,0,0,19.81-5.53,57.86,57.86,0,0,0,14.43-13.09Z"/>
      <path class="fb162d96-c87c-4fb7-9998-3f71599fcdc4" d="M1357.65,564.32q-10.34,4.26-19.56,7.19t-22.59,2.92q-19.73,0-27.76-10t-8-28.27v-107h-28.35V413.82h29V364.61h29v49.21h44.8v15.35h-44.48v88.59a159.62,159.62,0,0,0,.71,16.63,31.24,31.24,0,0,0,3.42,11.66,16.4,16.4,0,0,0,7.63,7.07q5.1,2.43,13.68,2.42,4,0,11.69-.78c5.14-.52,8.77-1.17,10.89-2Z"/>
      <path class="fb162d96-c87c-4fb7-9998-3f71599fcdc4" d="M1436.4,575.22q-34.37,0-53.8-22.74t-19.43-61a91.2,91.2,0,0,1,5.22-31.14A85.69,85.69,0,0,1,1383.58,434a71.56,71.56,0,0,1,55-25.3q23.29,0,37.93,11.13t14.63,30.34a26.23,26.23,0,0,1-3.84,14.17q-3.82,6.17-12.6,6.16-9.4,0-14.6-4.78T1454.89,455a59.92,59.92,0,0,1,1.91-14.75,80.1,80.1,0,0,0,2.24-11.09,14.28,14.28,0,0,0-8.63-6.61,43.85,43.85,0,0,0-12.36-1.68,34.46,34.46,0,0,0-14.77,3.29q-7,3.29-13.64,12.1-6,8-9.69,21.63t-3.72,32.52q0,29.81,13.25,48.63t34.78,18.83q15.57,0,26.1-7.58t19.52-22.73l10.28,6.71a82.79,82.79,0,0,1-27.94,29.89Q1454.87,575.21,1436.4,575.22Z"/>
      <path class="fb162d96-c87c-4fb7-9998-3f71599fcdc4" d="M1677.64,570.89h-77.55V560.26c2.46-.21,5.18-.43,8.18-.64a30.21,30.21,0,0,0,7.39-1.29,11.51,11.51,0,0,0,6.66-5,17.93,17.93,0,0,0,2.17-9.37V462.69q0-16.83-7.91-26t-19.26-9.14a44,44,0,0,0-15.43,2.65,57.88,57.88,0,0,0-12.71,6.49,37.4,37.4,0,0,0-8.31,8c-1.92,2.67-3.42,4.91-4.48,6.73v90.85a16.86,16.86,0,0,0,2.16,9,13.92,13.92,0,0,0,6.67,5.45,35.7,35.7,0,0,0,7.3,2.41,61,61,0,0,0,8.28,1.12v10.63h-77.55V560.26c2.43-.21,5-.45,7.63-.72a36.7,36.7,0,0,0,6.68-1.2,11.72,11.72,0,0,0,6.68-5,17.47,17.47,0,0,0,2.23-9.35V360.6a25.94,25.94,0,0,0-2.47-10.85,19.08,19.08,0,0,0-6.44-8.15q-2.86-2.07-10.1-3t-11.69-1.2V326.82l58.38-3.55,2.24,2.4V435.6h.64q5.27-5.28,9.58-9.37a76.37,76.37,0,0,1,11.33-8.56,59.85,59.85,0,0,1,14.29-6.41,61.75,61.75,0,0,1,18.44-2.56q21.06,0,32.41,13.37t11.33,38.48v82.1a17.71,17.71,0,0,0,2,9.05,13.19,13.19,0,0,0,6.69,5.36,53.1,53.1,0,0,0,6.69,2.16,47.72,47.72,0,0,0,7.83,1Z"/>
    </g>
    <g>
      <path class="fb162d96-c87c-4fb7-9998-3f71599fcdc4" d="M1382.05,707.28h-52v40.54h58.14v20.67h-83.31v-138h80.24v20.67h-55.07v35.62h52Z"/>
      <path class="fb162d96-c87c-4fb7-9998-3f71599fcdc4" d="M1410.3,632.36a238.61,238.61,0,0,1,38.08-2.87c19.85,0,33.36,3.28,42.58,11.06,7.57,6.35,11.87,16,11.87,27.63,0,17.81-12.08,29.89-25,34.6v.62c9.83,3.68,15.77,13.3,19.25,26.61,4.3,17.19,8,33.16,10.85,38.48h-26c-2-4.09-5.32-15.35-9.21-32.55-3.89-18-10.45-23.74-24.78-24.15h-12.69v56.7h-25Zm25,61h15c17,0,27.63-9,27.63-22.72,0-15.15-10.64-22.11-27-22.11-8,0-13.1.62-15.56,1.23Z"/>
      <path class="fb162d96-c87c-4fb7-9998-3f71599fcdc4" d="M1552,630.52v138h-25.18v-138Z"/>
      <path class="fb162d96-c87c-4fb7-9998-3f71599fcdc4" d="M1679.69,764.4c-5.94,3.07-19,6.14-35.62,6.14-43.81,0-70.42-27.43-70.42-69.4,0-45.44,31.52-72.87,73.69-72.87,16.59,0,28.46,3.48,33.58,6.14l-5.53,20.06a67,67,0,0,0-27-5.32c-28,0-48.32,17.6-48.32,50.77,0,30.29,17.82,49.74,48.11,49.74,10.24,0,20.88-2,27.43-5.12Z"/>
    </g>
  </g>
</svg>
